<?xml version="1.0" encoding="UTF-8"?><svg xmlns="http://www.w3.org/2000/svg" viewBox="0 0 4200 3600" width="4200" height="3600"><rect width="4200" height="3600" fill="white"/><line x1="2100" y1="250" x2="2006.0307379214091" y2="215.79798566743312" stroke="black" stroke-width="1.5"/>
<line x1="2100" y1="250" x2="2060.3920233960844" y2="158.17838931197258" stroke="black" stroke-width="1.5"/>
<line x1="2100" y1="250" x2="2139.6079766039156" y2="158.17838931197258" stroke="black" stroke-width="1.5"/>
<line x1="2100" y1="250" x2="2193.969262078591" y2="215.79798566743312" stroke="black" stroke-width="1.5"/>
<line x1="3800" y1="250" x2="3701.3322748174796" y2="214.08788495080478" stroke="black" stroke-width="1.5"/>
<line x1="3800" y1="250" x2="3739.7744741831402" y2="163.98903534965586" stroke="black" stroke-width="1.5"/>
<line x1="3800" y1="250" x2="3800.0" y2="145.0" stroke="black" stroke-width="1.5"/>
<line x1="3800" y1="250" x2="3860.2255258168598" y2="163.98903534965586" stroke="black" stroke-width="1.5"/>
<line x1="3800" y1="250" x2="3898.6677251825204" y2="214.0878849508048" stroke="black" stroke-width="1.5"/>
<line x1="400" y1="700" x2="335.72123903134604" y2="776.6044443118979" stroke="black" stroke-width="1.5"/>
<line x1="400" y1="700" x2="300.0" y2="700.0" stroke="black" stroke-width="1.5"/>
<line x1="400" y1="700" x2="335.72123903134604" y2="623.3955556881021" stroke="black" stroke-width="1.5"/>
<line x1="1200" y1="700" x2="1106.0307379214091" y2="665.7979856674332" stroke="black" stroke-width="1.5"/>
<line x1="1200" y1="700" x2="1200.0" y2="600.0" stroke="black" stroke-width="1.5"/>
<line x1="1200" y1="700" x2="1293.9692620785909" y2="665.7979856674332" stroke="black" stroke-width="1.5"/>
<line x1="3800" y1="750" x2="3835.912115049195" y2="651.3322748174796" stroke="black" stroke-width="1.5"/>
<line x1="3800" y1="750" x2="3896.4126912224287" y2="708.4116245658885" stroke="black" stroke-width="1.5"/>
<line x1="3800" y1="750" x2="3896.4126912224287" y2="791.5883754341114" stroke="black" stroke-width="1.5"/>
<line x1="3800" y1="750" x2="3835.912115049195" y2="848.6677251825204" stroke="black" stroke-width="1.5"/>
<line x1="400" y1="1350" x2="360.6676835175481" y2="1458.0646513903794" stroke="black" stroke-width="1.5"/>
<line x1="400" y1="1350" x2="314.5383450700997" y2="1426.9500197312686" stroke="black" stroke-width="1.5"/>
<line x1="400" y1="1350" x2="288.4159914782604" y2="1377.8210179939617" stroke="black" stroke-width="1.5"/>
<line x1="400" y1="1350" x2="288.4159914782604" y2="1322.1789820060383" stroke="black" stroke-width="1.5"/>
<line x1="400" y1="1350" x2="314.5383450700997" y2="1273.0499802687314" stroke="black" stroke-width="1.5"/>
<line x1="400" y1="1350" x2="360.66768351754814" y2="1241.9353486096206" stroke="black" stroke-width="1.5"/>
<line x1="1400" y1="1350" x2="1467.5" y2="1466.9134295108993" stroke="black" stroke-width="1.5"/>
<line x1="1400" y1="1350" x2="1441.2190096888403" y2="1478.553464520686" stroke="black" stroke-width="1.5"/>
<line x1="1400" y1="1350" x2="1413.0694675449292" y2="1484.3658774320775" stroke="black" stroke-width="1.5"/>
<line x1="1400" y1="1350" x2="1384.327456593094" y2="1484.0871782951624" stroke="black" stroke-width="1.5"/>
<line x1="1400" y1="1350" x2="1356.2959178221267" y2="1477.7300011782263" stroke="black" stroke-width="1.5"/>
<line x1="1400" y1="1350" x2="1330.2455848944985" y2="1465.582531436586" stroke="black" stroke-width="1.5"/>
<line x1="1400" y1="1350" x2="1307.357378887721" y2="1448.1954416123615" stroke="black" stroke-width="1.5"/>
<line x1="1400" y1="1350" x2="1288.6688744452706" y2="1426.3569281906828" stroke="black" stroke-width="1.5"/>
<line x1="1400" y1="1350" x2="1275.0272641486997" y2="1401.0569808531718" stroke="black" stroke-width="1.5"/>
<line x1="1400" y1="1350" x2="1267.050953343352" y2="1373.4425039850355" stroke="black" stroke-width="1.5"/>
<line x1="2400" y1="1350" x2="2358.9575828009197" y2="1237.236885505691" stroke="black" stroke-width="1.5"/>
<line x1="2400" y1="1350" x2="2400.0" y2="1230.0" stroke="black" stroke-width="1.5"/>
<line x1="2400" y1="1350" x2="2441.0424171990803" y2="1237.236885505691" stroke="black" stroke-width="1.5"/>
<line x1="2400" y1="1350" x2="2477.134513162385" y2="1258.0746668257227" stroke="black" stroke-width="1.5"/>
<line x1="2400" y1="1350" x2="2503.9230484541326" y2="1290.0" stroke="black" stroke-width="1.5"/>
<line x1="2400" y1="1350" x2="2518.176930361465" y2="1329.1622186799684" stroke="black" stroke-width="1.5"/>
<line x1="3500" y1="1350" x2="3570.0" y2="1228.7564434701785" stroke="black" stroke-width="1.5"/>
<line x1="3500" y1="1350" x2="3597.2521718642597" y2="1249.292427952589" stroke="black" stroke-width="1.5"/>
<line x1="3500" y1="1350" x2="3618.7267334618996" y2="1275.8113030073514" stroke="black" stroke-width="1.5"/>
<line x1="3500" y1="1350" x2="3633.1479122813216" y2="1306.7376207875072" stroke="black" stroke-width="1.5"/>
<line x1="3500" y1="1350" x2="3639.6589670363755" y2="1340.2340936758224" stroke="black" stroke-width="1.5"/>
<line x1="3500" y1="1350" x2="3637.873085421709" y2="1374.3107448733701" stroke="black" stroke-width="1.5"/>
<line x1="3500" y1="1350" x2="3627.896364069964" y2="1406.943130030612" stroke="black" stroke-width="1.5"/>
<line x1="3500" y1="1350" x2="3610.321505504941" y2="1436.192606545592" stroke="black" stroke-width="1.5"/>
<line x1="3500" y1="1350" x2="3586.1926065455923" y2="1460.3215055049411" stroke="black" stroke-width="1.5"/>
<line x1="3500" y1="1350" x2="3556.943130030612" y2="1477.8963640699642" stroke="black" stroke-width="1.5"/>
<line x1="3500" y1="1350" x2="3524.3107448733704" y2="1487.8730854217092" stroke="black" stroke-width="1.5"/>
<line x1="900" y1="2100" x2="877.425736903299" y2="2228.025007891587" stroke="black" stroke-width="1.5"/>
<line x1="900" y1="2100" x2="835.0" y2="2212.583302491977" stroke="black" stroke-width="1.5"/>
<line x1="900" y1="2100" x2="800.4142223945329" y2="2183.5623892592503" stroke="black" stroke-width="1.5"/>
<line x1="900" y1="2100" x2="777.8399592978319" y2="2144.462618632337" stroke="black" stroke-width="1.5"/>
<line x1="900" y1="2100" x2="770.0" y2="2100.0" stroke="black" stroke-width="1.5"/>
<line x1="900" y1="2100" x2="777.8399592978319" y2="2055.537381367663" stroke="black" stroke-width="1.5"/>
<line x1="900" y1="2100" x2="800.4142223945329" y2="2016.43761074075" stroke="black" stroke-width="1.5"/>
<line x1="900" y1="2100" x2="835.0" y2="1987.416697508023" stroke="black" stroke-width="1.5"/>
<line x1="900" y1="2100" x2="877.425736903299" y2="1971.974992108413" stroke="black" stroke-width="1.5"/>
<line x1="1800" y1="2100" x2="1755.0" y2="2022.0577136594006" stroke="black" stroke-width="1.5"/>
<line x1="1800" y1="2100" x2="1845.0" y2="2022.0577136594006" stroke="black" stroke-width="1.5"/>
<line x1="3000" y1="2100" x2="3000.0" y2="2020.0" stroke="black" stroke-width="1.5"/>
<line x1="1500" y1="2850" x2="1406.0307379214091" y2="2815.7979856674333" stroke="black" stroke-width="1.5"/>
<line x1="1500" y1="2850" x2="1500.0" y2="2750.0" stroke="black" stroke-width="1.5"/>
<line x1="1500" y1="2850" x2="1593.9692620785909" y2="2815.7979856674333" stroke="black" stroke-width="1.5"/>
<line x1="2800" y1="2850" x2="2706.030737921409" y2="2815.7979856674333" stroke="black" stroke-width="1.5"/>
<line x1="2800" y1="2850" x2="2800.0" y2="2750.0" stroke="black" stroke-width="1.5"/>
<line x1="2800" y1="2850" x2="2893.969262078591" y2="2815.7979856674333" stroke="black" stroke-width="1.5"/>
<line x1="2045" y1="272" x2="1660" y2="447" stroke="black" stroke-width="1.5"/>
<line x1="1640" y1="503" x2="1280" y2="678" stroke="black" stroke-width="1.5"/>
<line x1="2155" y1="250" x2="2895" y2="250" stroke="black" stroke-width="1.5"/>
<line x1="3005" y1="250" x2="3750" y2="250" stroke="black" stroke-width="1.5"/>
<line x1="2100" y1="272" x2="2100" y2="772" stroke="black" stroke-width="1.5"/>
<line x1="2100" y1="772" x2="1805" y2="800" stroke="black" stroke-width="1.5"/>
<line x1="1695" y1="800" x2="1460" y2="1328" stroke="black" stroke-width="1.5"/>
<polyline points="2155,250 2800,250 2800,772" fill="none" stroke="black" stroke-width="1.5"/>
<line x1="2800" y1="828" x2="3440" y2="1328" stroke="black" stroke-width="1.5"/>
<polyline points="2120,272 2400,500 2400,772" fill="none" stroke="black" stroke-width="1.5"/>
<line x1="2400" y1="828" x2="2400" y2="1328" stroke="black" stroke-width="1.5"/>
<line x1="450" y1="722" x2="885" y2="1000" stroke="black" stroke-width="1.5"/>
<line x1="915" y1="1050" x2="1340" y2="1328" stroke="black" stroke-width="1.5"/>
<polyline points="400,678 400,500 3460,550" fill="none" stroke="black" stroke-width="1.5"/>
<line x1="3500" y1="575" x2="3500" y2="1328" stroke="black" stroke-width="1.5"/>
<line x1="400" y1="722" x2="400" y2="1000" stroke="black" stroke-width="1.5"/>
<line x1="400" y1="1050" x2="400" y2="1328" stroke="black" stroke-width="1.5"/>
<line x1="1220" y1="722" x2="1300" y2="997" stroke="black" stroke-width="1.5"/>
<line x1="1300" y1="1053" x2="1400" y2="1328" stroke="black" stroke-width="1.5"/>
<polyline points="1280,722 1280,1050 3145,1050" fill="none" stroke="black" stroke-width="1.5"/>
<line x1="3230" y1="1078" x2="3470" y2="1328" stroke="black" stroke-width="1.5"/>
<line x1="1280" y1="705" x2="1790" y2="1000" stroke="black" stroke-width="1.5"/>
<line x1="1810" y1="1050" x2="2340" y2="1328" stroke="black" stroke-width="1.5"/>
<line x1="1120" y1="722" x2="810" y2="1000" stroke="black" stroke-width="1.5"/>
<line x1="790" y1="1050" x2="490" y2="1328" stroke="black" stroke-width="1.5"/>
<line x1="1430" y1="1372" x2="1600" y2="1700" stroke="black" stroke-width="1.5"/>
<line x1="1600" y1="1750" x2="1723" y2="2078" stroke="black" stroke-width="1.5"/>
<line x1="2370" y1="1372" x2="2100" y2="1700" stroke="black" stroke-width="1.5"/>
<line x1="2100" y1="1750" x2="1877" y2="2078" stroke="black" stroke-width="1.5"/>
<line x1="3470" y1="1372" x2="3250" y2="1700" stroke="black" stroke-width="1.5"/>
<line x1="3250" y1="1750" x2="3087" y2="2078" stroke="black" stroke-width="1.5"/>
<line x1="2430" y1="1372" x2="2700" y2="1700" stroke="black" stroke-width="1.5"/>
<line x1="2700" y1="1750" x2="2913" y2="2078" stroke="black" stroke-width="1.5"/>
<line x1="1360" y1="1372" x2="1160" y2="1700" stroke="black" stroke-width="1.5"/>
<line x1="1140" y1="1750" x2="985" y2="2078" stroke="black" stroke-width="1.5"/>
<polyline points="2340,1372 2340,1600 940,1725" fill="none" stroke="black" stroke-width="1.5"/>
<line x1="900" y1="1750" x2="900" y2="2078" stroke="black" stroke-width="1.5"/>
<line x1="1370" y1="1372" x2="1350" y2="2447" stroke="black" stroke-width="1.5"/>
<line x1="1350" y1="2503" x2="1450" y2="2828" stroke="black" stroke-width="1.5"/>
<polyline points="2400,1372 2400,2300 1700,2400 1700,2450" fill="none" stroke="black" stroke-width="1.5"/>
<line x1="1700" y1="2500" x2="1540" y2="2828" stroke="black" stroke-width="1.5"/>
<polyline points="3500,1372 3500,2600 2400,2700 2055,2700" fill="none" stroke="black" stroke-width="1.5"/>
<line x1="1945" y1="2700" x2="1577" y2="2850" stroke="black" stroke-width="1.5"/>
<polyline points="3800,772 3800,3150 1550,3150" fill="none" stroke="black" stroke-width="1.5"/>
<line x1="1500" y1="3122" x2="1500" y2="2872" stroke="black" stroke-width="1.5"/>
<polyline points="1280,695 2050,700 2050,950 3600,950 3600,2475 2840,2475" fill="none" stroke="black" stroke-width="1.5"/>
<line x1="2800" y1="2500" x2="2800" y2="2828" stroke="black" stroke-width="1.5"/>
<polyline points="2420,1372 2420,2300 2500,2447" fill="none" stroke="black" stroke-width="1.5"/>
<line x1="2500" y1="2503" x2="2728" y2="2828" stroke="black" stroke-width="1.5"/>
<polyline points="3530,1372 3530,2400 3155,2475" fill="none" stroke="black" stroke-width="1.5"/>
<line x1="3080" y1="2503" x2="2872" y2="2828" stroke="black" stroke-width="1.5"/>
<polyline points="3830,772 3830,3300 3400,3300 3400,3150 2840,3150" fill="none" stroke="black" stroke-width="1.5"/>
<line x1="2800" y1="3125" x2="2800" y2="2872" stroke="black" stroke-width="1.5"/>
<polyline points="2045,255 350,255 350,2625" fill="none" stroke="black" stroke-width="1.5"/>
<line x1="395" y1="2660" x2="1423" y2="2840" stroke="black" stroke-width="1.5"/><text x="2100" y="50" text-anchor="middle" font-size="26" font-weight="bold" font-family="Arial">ER DIAGRAM - PCAS-Connect (College Attendance and Academic Management System)</text>
<rect x="2045.0" y="227.5" width="110" height="45" fill="white" stroke="black" stroke-width="2.5"/><text x="2100" y="257" text-anchor="middle" font-size="18" font-weight="bold" font-family="Arial">Admin</text>
<rect x="3750.0" y="227.5" width="100" height="45" fill="white" stroke="black" stroke-width="2.5"/><text x="3800" y="257" text-anchor="middle" font-size="18" font-weight="bold" font-family="Arial">Batch</text>
<rect x="350.0" y="677.5" width="100" height="45" fill="white" stroke="black" stroke-width="2.5"/><text x="400" y="707" text-anchor="middle" font-size="18" font-weight="bold" font-family="Arial">User</text>
<rect x="1120.0" y="677.5" width="160" height="45" fill="white" stroke="black" stroke-width="2.5"/><text x="1200" y="707" text-anchor="middle" font-size="18" font-weight="bold" font-family="Arial">Department</text>
<rect x="3745.0" y="727.5" width="110" height="45" fill="white" stroke="black" stroke-width="2.5"/><text x="3800" y="757" text-anchor="middle" font-size="18" font-weight="bold" font-family="Arial">Period</text>
<rect x="310.0" y="1327.5" width="180" height="45" fill="white" stroke="black" stroke-width="2.5"/><text x="400" y="1357" text-anchor="middle" font-size="18" font-weight="bold" font-family="Arial">Announcement</text>
<rect x="1340.0" y="1327.5" width="120" height="45" fill="white" stroke="black" stroke-width="2.5"/><text x="1400" y="1357" text-anchor="middle" font-size="18" font-weight="bold" font-family="Arial">Student</text>
<rect x="2340.0" y="1327.5" width="120" height="45" fill="white" stroke="black" stroke-width="2.5"/><text x="2400" y="1357" text-anchor="middle" font-size="18" font-weight="bold" font-family="Arial">Subject</text>
<rect x="3440.0" y="1327.5" width="120" height="45" fill="white" stroke="black" stroke-width="2.5"/><text x="3500" y="1357" text-anchor="middle" font-size="18" font-weight="bold" font-family="Arial">Teacher</text>
<rect x="815.0" y="2077.5" width="170" height="45" fill="white" stroke="black" stroke-width="2.5"/><text x="900" y="2107" text-anchor="middle" font-size="18" font-weight="bold" font-family="Arial">InternalMark</text>
<rect x="1722.5" y="2077.5" width="155" height="45" fill="white" stroke="black" stroke-width="2.5"/><text x="1800" y="2107" text-anchor="middle" font-size="18" font-weight="bold" font-family="Arial">Enrollment</text>
<rect x="2912.5" y="2077.5" width="175" height="45" fill="white" stroke="black" stroke-width="2.5"/><text x="3000" y="2107" text-anchor="middle" font-size="18" font-weight="bold" font-family="Arial">TeacherSubject</text>
<rect x="1422.5" y="2827.5" width="155" height="45" fill="white" stroke="black" stroke-width="2.5"/><text x="1500" y="2857" text-anchor="middle" font-size="18" font-weight="bold" font-family="Arial">Attendance</text>
<rect x="2727.5" y="2827.5" width="145" height="45" fill="white" stroke="black" stroke-width="2.5"/><text x="2800" y="2857" text-anchor="middle" font-size="18" font-weight="bold" font-family="Arial">TimeTable</text>
<ellipse cx="2006.0307379214091" cy="215.79798566743312" rx="38" ry="16" fill="white" stroke="black" stroke-width="1.5"/><text x="2006.0307379214091" y="220.79798566743312" text-anchor="middle" font-size="13" font-family="Arial" style="text-decoration:underline;">id</text>
<ellipse cx="2060.3920233960844" cy="158.17838931197258" rx="54" ry="16" fill="white" stroke="black" stroke-width="1.5"/><text x="2060.3920233960844" y="163.17838931197258" text-anchor="middle" font-size="13" font-family="Arial" style="">username</text>
<ellipse cx="2139.6079766039156" cy="158.17838931197258" rx="54" ry="16" fill="white" stroke="black" stroke-width="1.5"/><text x="2139.6079766039156" y="163.17838931197258" text-anchor="middle" font-size="13" font-family="Arial" style="">password</text>
<ellipse cx="2193.969262078591" cy="215.79798566743312" rx="54" ry="16" fill="white" stroke="black" stroke-width="1.5"/><text x="2193.969262078591" y="220.79798566743312" text-anchor="middle" font-size="13" font-family="Arial" style="">is_staff</text>
<ellipse cx="3701.3322748174796" cy="214.08788495080478" rx="38" ry="16" fill="white" stroke="black" stroke-width="1.5"/><text x="3701.3322748174796" y="219.08788495080478" text-anchor="middle" font-size="13" font-family="Arial" style="text-decoration:underline;">id</text>
<ellipse cx="3739.7744741831402" cy="163.98903534965586" rx="38" ry="16" fill="white" stroke="black" stroke-width="1.5"/><text x="3739.7744741831402" y="168.98903534965586" text-anchor="middle" font-size="13" font-family="Arial" style="">name</text>
<ellipse cx="3800.0" cy="145.0" rx="64" ry="16" fill="white" stroke="black" stroke-width="1.5"/><text x="3800.0" y="150.0" text-anchor="middle" font-size="13" font-family="Arial" style="">start_year</text>
<ellipse cx="3860.2255258168598" cy="163.98903534965586" rx="54" ry="16" fill="white" stroke="black" stroke-width="1.5"/><text x="3860.2255258168598" y="168.98903534965586" text-anchor="middle" font-size="13" font-family="Arial" style="">end_year</text>
<ellipse cx="3898.6677251825204" cy="214.0878849508048" rx="59" ry="16" fill="white" stroke="black" stroke-width="1.5"/><text x="3898.6677251825204" y="219.0878849508048" text-anchor="middle" font-size="13" font-family="Arial" style="">is_active</text>
<ellipse cx="335.72123903134604" cy="776.6044443118979" rx="38" ry="16" fill="white" stroke="black" stroke-width="1.5"/><text x="335.72123903134604" y="781.6044443118979" text-anchor="middle" font-size="13" font-family="Arial" style="text-decoration:underline;">id</text>
<ellipse cx="300.0" cy="700.0" rx="54" ry="16" fill="white" stroke="black" stroke-width="1.5"/><text x="300.0" y="705.0" text-anchor="middle" font-size="13" font-family="Arial" style="">username</text>
<ellipse cx="335.72123903134604" cy="623.3955556881021" rx="54" ry="16" fill="white" stroke="black" stroke-width="1.5"/><text x="335.72123903134604" y="628.3955556881021" text-anchor="middle" font-size="13" font-family="Arial" style="">password</text>
<ellipse cx="1106.0307379214091" cy="665.7979856674332" rx="38" ry="16" fill="white" stroke="black" stroke-width="1.5"/><text x="1106.0307379214091" y="670.7979856674332" text-anchor="middle" font-size="13" font-family="Arial" style="text-decoration:underline;">id</text>
<ellipse cx="1200.0" cy="600.0" rx="38" ry="16" fill="white" stroke="black" stroke-width="1.5"/><text x="1200.0" y="605.0" text-anchor="middle" font-size="13" font-family="Arial" style="">name</text>
<ellipse cx="1293.9692620785909" cy="665.7979856674332" rx="38" ry="16" fill="white" stroke="black" stroke-width="1.5"/><text x="1293.9692620785909" y="670.7979856674332" text-anchor="middle" font-size="13" font-family="Arial" style="">code</text>
<ellipse cx="3835.912115049195" cy="651.3322748174796" rx="38" ry="16" fill="white" stroke="black" stroke-width="1.5"/><text x="3835.912115049195" y="656.3322748174796" text-anchor="middle" font-size="13" font-family="Arial" style="text-decoration:underline;">id</text>
<ellipse cx="3896.4126912224287" cy="708.4116245658885" rx="44" ry="16" fill="white" stroke="black" stroke-width="1.5"/><text x="3896.4126912224287" y="713.4116245658885" text-anchor="middle" font-size="13" font-family="Arial" style="">number</text>
<ellipse cx="3896.4126912224287" cy="791.5883754341114" rx="64" ry="16" fill="white" stroke="black" stroke-width="1.5"/><text x="3896.4126912224287" y="796.5883754341114" text-anchor="middle" font-size="13" font-family="Arial" style="">start_time</text>
<ellipse cx="3835.912115049195" cy="848.6677251825204" rx="54" ry="16" fill="white" stroke="black" stroke-width="1.5"/><text x="3835.912115049195" y="853.6677251825204" text-anchor="middle" font-size="13" font-family="Arial" style="">end_time</text>
<ellipse cx="360.6676835175481" cy="1458.0646513903794" rx="38" ry="16" fill="white" stroke="black" stroke-width="1.5"/><text x="360.6676835175481" y="1463.0646513903794" text-anchor="middle" font-size="13" font-family="Arial" style="text-decoration:underline;">id</text>
<ellipse cx="314.5383450700997" cy="1426.9500197312686" rx="39" ry="16" fill="white" stroke="black" stroke-width="1.5"/><text x="314.5383450700997" y="1431.9500197312686" text-anchor="middle" font-size="13" font-family="Arial" style="">title</text>
<ellipse cx="288.4159914782604" cy="1377.8210179939617" rx="49" ry="16" fill="white" stroke="black" stroke-width="1.5"/><text x="288.4159914782604" y="1382.8210179939617" text-anchor="middle" font-size="13" font-family="Arial" style="">content</text>
<ellipse cx="288.4159914782604" cy="1322.1789820060383" rx="38" ry="16" fill="white" stroke="black" stroke-width="1.5"/><text x="288.4159914782604" y="1327.1789820060383" text-anchor="middle" font-size="13" font-family="Arial" style="">date</text>
<ellipse cx="314.5383450700997" cy="1273.0499802687314" rx="54" ry="16" fill="white" stroke="black" stroke-width="1.5"/><text x="314.5383450700997" y="1278.0499802687314" text-anchor="middle" font-size="13" font-family="Arial" style="">audience</text>
<ellipse cx="360.66768351754814" cy="1241.9353486096206" rx="54" ry="16" fill="white" stroke="black" stroke-width="1.5"/><text x="360.66768351754814" y="1246.9353486096206" text-anchor="middle" font-size="13" font-family="Arial" style="">semester</text>
<ellipse cx="1467.5" cy="1466.9134295108993" rx="38" ry="16" fill="white" stroke="black" stroke-width="1.5"/><text x="1467.5" y="1471.9134295108993" text-anchor="middle" font-size="13" font-family="Arial" style="text-decoration:underline;">id</text>
<ellipse cx="1441.2190096888403" cy="1478.553464520686" rx="38" ry="16" fill="white" stroke="black" stroke-width="1.5"/><text x="1441.2190096888403" y="1483.553464520686" text-anchor="middle" font-size="13" font-family="Arial" style="">name</text>
<ellipse cx="1413.0694675449292" cy="1484.3658774320775" rx="69" ry="16" fill="white" stroke="black" stroke-width="1.5"/><text x="1413.0694675449292" y="1489.3658774320775" text-anchor="middle" font-size="11" font-family="Arial" style="">register_no</text>
<ellipse cx="1384.327456593094" cy="1484.0871782951624" rx="39" ry="16" fill="white" stroke="black" stroke-width="1.5"/><text x="1384.327456593094" y="1489.0871782951624" text-anchor="middle" font-size="13" font-family="Arial" style="">email</text>
<ellipse cx="1356.2959178221267" cy="1477.7300011782263" rx="54" ry="16" fill="white" stroke="black" stroke-width="1.5"/><text x="1356.2959178221267" y="1482.7300011782263" text-anchor="middle" font-size="13" font-family="Arial" style="">semester</text>
<ellipse cx="1330.2455848944985" cy="1465.582531436586" rx="38" ry="16" fill="white" stroke="black" stroke-width="1.5"/><text x="1330.2455848944985" y="1470.582531436586" text-anchor="middle" font-size="13" font-family="Arial" style="">dob</text>
<ellipse cx="1307.357378887721" cy="1448.1954416123615" rx="39" ry="16" fill="white" stroke="black" stroke-width="1.5"/><text x="1307.357378887721" y="1453.1954416123615" text-anchor="middle" font-size="13" font-family="Arial" style="">phone</text>
<ellipse cx="1288.6688744452706" cy="1426.3569281906828" rx="49" ry="16" fill="white" stroke="black" stroke-width="1.5"/><text x="1288.6688744452706" y="1431.3569281906828" text-anchor="middle" font-size="13" font-family="Arial" style="">address</text>
<ellipse cx="1275.0272641486997" cy="1401.0569808531718" rx="69" ry="16" fill="white" stroke="black" stroke-width="1.5"/><text x="1275.0272641486997" y="1406.0569808531718" text-anchor="middle" font-size="11" font-family="Arial" style="">blood_group</text>
<ellipse cx="1267.050953343352" cy="1373.4425039850355" rx="79" ry="16" fill="white" stroke="black" stroke-width="1.5"/><text x="1267.050953343352" y="1378.4425039850355" text-anchor="middle" font-size="11" font-family="Arial" style="">profile_image</text>
<ellipse cx="2358.9575828009197" cy="1237.236885505691" rx="38" ry="16" fill="white" stroke="black" stroke-width="1.5"/><text x="2358.9575828009197" y="1242.236885505691" text-anchor="middle" font-size="13" font-family="Arial" style="text-decoration:underline;">id</text>
<ellipse cx="2400.0" cy="1230.0" rx="38" ry="16" fill="white" stroke="black" stroke-width="1.5"/><text x="2400.0" y="1235.0" text-anchor="middle" font-size="13" font-family="Arial" style="">name</text>
<ellipse cx="2441.0424171990803" cy="1237.236885505691" rx="38" ry="16" fill="white" stroke="black" stroke-width="1.5"/><text x="2441.0424171990803" y="1242.236885505691" text-anchor="middle" font-size="13" font-family="Arial" style="">code</text>
<ellipse cx="2477.134513162385" cy="1258.0746668257227" rx="54" ry="16" fill="white" stroke="black" stroke-width="1.5"/><text x="2477.134513162385" y="1263.0746668257227" text-anchor="middle" font-size="13" font-family="Arial" style="">semester</text>
<ellipse cx="2503.9230484541326" cy="1290.0" rx="44" ry="16" fill="white" stroke="black" stroke-width="1.5"/><text x="2503.9230484541326" y="1295.0" text-anchor="middle" font-size="13" font-family="Arial" style="">credit</text>
<ellipse cx="2518.176930361465" cy="1329.1622186799684" rx="74" ry="16" fill="white" stroke="black" stroke-width="1.5"/><text x="2518.176930361465" y="1334.1622186799684" text-anchor="middle" font-size="11" font-family="Arial" style="">subject_type</text>
<ellipse cx="3570.0" cy="1228.7564434701785" rx="38" ry="16" fill="white" stroke="black" stroke-width="1.5"/><text x="3570.0" y="1233.7564434701785" text-anchor="middle" font-size="13" font-family="Arial" style="text-decoration:underline;">id</text>
<ellipse cx="3597.2521718642597" cy="1249.292427952589" rx="38" ry="16" fill="white" stroke="black" stroke-width="1.5"/><text x="3597.2521718642597" y="1254.292427952589" text-anchor="middle" font-size="13" font-family="Arial" style="">name</text>
<ellipse cx="3618.7267334618996" cy="1275.8113030073514" rx="39" ry="16" fill="white" stroke="black" stroke-width="1.5"/><text x="3618.7267334618996" y="1280.8113030073514" text-anchor="middle" font-size="13" font-family="Arial" style="">email</text>
<ellipse cx="3633.1479122813216" cy="1306.7376207875072" rx="39" ry="16" fill="white" stroke="black" stroke-width="1.5"/><text x="3633.1479122813216" y="1311.7376207875072" text-anchor="middle" font-size="13" font-family="Arial" style="">phone</text>
<ellipse cx="3639.6589670363755" cy="1340.2340936758224" rx="38" ry="16" fill="white" stroke="black" stroke-width="1.5"/><text x="3639.6589670363755" y="1345.2340936758224" text-anchor="middle" font-size="13" font-family="Arial" style="">dob</text>
<ellipse cx="3637.873085421709" cy="1374.3107448733701" rx="44" ry="16" fill="white" stroke="black" stroke-width="1.5"/><text x="3637.873085421709" y="1379.3107448733701" text-anchor="middle" font-size="13" font-family="Arial" style="">gender</text>
<ellipse cx="3627.896364069964" cy="1406.943130030612" rx="79" ry="16" fill="white" stroke="black" stroke-width="1.5"/><text x="3627.896364069964" y="1411.943130030612" text-anchor="middle" font-size="11" font-family="Arial" style="">qualification</text>
<ellipse cx="3610.321505504941" cy="1436.192606545592" rx="38" ry="16" fill="white" stroke="black" stroke-width="1.5"/><text x="3610.321505504941" y="1441.192606545592" text-anchor="middle" font-size="13" font-family="Arial" style="">role</text>
<ellipse cx="3586.1926065455923" cy="1460.3215055049411" rx="44" ry="16" fill="white" stroke="black" stroke-width="1.5"/><text x="3586.1926065455923" y="1465.3215055049411" text-anchor="middle" font-size="13" font-family="Arial" style="">is_hod</text>
<ellipse cx="3556.943130030612" cy="1477.8963640699642" rx="89" ry="16" fill="white" stroke="black" stroke-width="1.5"/><text x="3556.943130030612" y="1482.8963640699642" text-anchor="middle" font-size="10" font-family="Arial" style="">date_of_joining</text>
<ellipse cx="3524.3107448733704" cy="1487.8730854217092" rx="79" ry="16" fill="white" stroke="black" stroke-width="1.5"/><text x="3524.3107448733704" y="1492.8730854217092" text-anchor="middle" font-size="11" font-family="Arial" style="">profile_image</text>
<ellipse cx="877.425736903299" cy="2228.025007891587" rx="38" ry="16" fill="white" stroke="black" stroke-width="1.5"/><text x="877.425736903299" y="2233.025007891587" text-anchor="middle" font-size="13" font-family="Arial" style="text-decoration:underline;">id</text>
<ellipse cx="835.0" cy="2212.583302491977" rx="79" ry="16" fill="white" stroke="black" stroke-width="1.5"/><text x="835.0" y="2217.583302491977" text-anchor="middle" font-size="11" font-family="Arial" style="">test_1_scored</text>
<ellipse cx="800.4142223945329" cy="2183.5623892592503" rx="74" ry="16" fill="white" stroke="black" stroke-width="1.5"/><text x="800.4142223945329" y="2188.5623892592503" text-anchor="middle" font-size="11" font-family="Arial" style="">test_1_total</text>
<ellipse cx="777.8399592978319" cy="2144.462618632337" rx="79" ry="16" fill="white" stroke="black" stroke-width="1.5"/><text x="777.8399592978319" y="2149.462618632337" text-anchor="middle" font-size="11" font-family="Arial" style="">test_2_scored</text>
<ellipse cx="770.0" cy="2100.0" rx="74" ry="16" fill="white" stroke="black" stroke-width="1.5"/><text x="770.0" y="2105.0" text-anchor="middle" font-size="11" font-family="Arial" style="">test_2_total</text>
<ellipse cx="777.8399592978319" cy="2055.537381367663" rx="39" ry="16" fill="white" stroke="black" stroke-width="1.5"/><text x="777.8399592978319" y="2060.537381367663" text-anchor="middle" font-size="13" font-family="Arial" style="">total</text>
<ellipse cx="800.4142223945329" cy="2016.43761074075" rx="54" ry="16" fill="white" stroke="black" stroke-width="1.5"/><text x="800.4142223945329" y="2021.43761074075" text-anchor="middle" font-size="13" font-family="Arial" style="">is_draft</text>
<ellipse cx="835.0" cy="1987.416697508023" rx="74" ry="16" fill="white" stroke="black" stroke-width="1.5"/><text x="835.0" y="1992.416697508023" text-anchor="middle" font-size="11" font-family="Arial" style="">is_submitted</text>
<ellipse cx="877.425736903299" cy="1971.974992108413" rx="69" ry="16" fill="white" stroke="black" stroke-width="1.5"/><text x="877.425736903299" y="1976.974992108413" text-anchor="middle" font-size="11" font-family="Arial" style="">is_approved</text>
<ellipse cx="1755.0" cy="2022.0577136594006" rx="38" ry="16" fill="white" stroke="black" stroke-width="1.5"/><text x="1755.0" y="2027.0577136594006" text-anchor="middle" font-size="13" font-family="Arial" style="text-decoration:underline;">id</text>
<ellipse cx="1845.0" cy="2022.0577136594006" rx="79" ry="16" fill="white" stroke="black" stroke-width="1.5"/><text x="1845.0" y="2027.0577136594006" text-anchor="middle" font-size="11" font-family="Arial" style="">date_enrolled</text>
<ellipse cx="3000.0" cy="2020.0" rx="38" ry="16" fill="white" stroke="black" stroke-width="1.5"/><text x="3000.0" y="2025.0" text-anchor="middle" font-size="13" font-family="Arial" style="text-decoration:underline;">id</text>
<ellipse cx="1406.0307379214091" cy="2815.7979856674333" rx="38" ry="16" fill="white" stroke="black" stroke-width="1.5"/><text x="1406.0307379214091" y="2820.7979856674333" text-anchor="middle" font-size="13" font-family="Arial" style="text-decoration:underline;">id</text>
<ellipse cx="1500.0" cy="2750.0" rx="38" ry="16" fill="white" stroke="black" stroke-width="1.5"/><text x="1500.0" y="2755.0" text-anchor="middle" font-size="13" font-family="Arial" style="">date</text>
<ellipse cx="1593.9692620785909" cy="2815.7979856674333" rx="44" ry="16" fill="white" stroke="black" stroke-width="1.5"/><text x="1593.9692620785909" y="2820.7979856674333" text-anchor="middle" font-size="13" font-family="Arial" style="">status</text>
<ellipse cx="2706.030737921409" cy="2815.7979856674333" rx="38" ry="16" fill="white" stroke="black" stroke-width="1.5"/><text x="2706.030737921409" y="2820.7979856674333" text-anchor="middle" font-size="13" font-family="Arial" style="text-decoration:underline;">id</text>
<ellipse cx="2800.0" cy="2750.0" rx="54" ry="16" fill="white" stroke="black" stroke-width="1.5"/><text x="2800.0" y="2755.0" text-anchor="middle" font-size="13" font-family="Arial" style="">semester</text>
<ellipse cx="2893.969262078591" cy="2815.7979856674333" rx="38" ry="16" fill="white" stroke="black" stroke-width="1.5"/><text x="2893.969262078591" y="2820.7979856674333" text-anchor="middle" font-size="13" font-family="Arial" style="">day</text>
<polygon points="1650,447 1705,475 1650,503 1595,475" fill="white" stroke="black" stroke-width="2"/><text x="1650" y="479" text-anchor="middle" font-size="12" font-weight="bold" font-family="Arial">Manages</text>
<text x="1690" y="460" font-size="14" font-family="Arial" font-weight="bold" fill="#222">1</text>
<text x="1600" y="500" font-size="14" font-family="Arial" font-weight="bold" fill="#222">M</text>
<polygon points="2950,222 3005,250 2950,278 2895,250" fill="white" stroke="black" stroke-width="2"/><text x="2950" y="254" text-anchor="middle" font-size="12" font-weight="bold" font-family="Arial">Manages</text>
<text x="2870" y="230" font-size="14" font-family="Arial" font-weight="bold" fill="#222">1</text>
<text x="3010" y="230" font-size="14" font-family="Arial" font-weight="bold" fill="#222">M</text>
<polygon points="1750,772 1805,800 1750,828 1695,800" fill="white" stroke="black" stroke-width="2"/><text x="1750" y="804" text-anchor="middle" font-size="12" font-weight="bold" font-family="Arial">Manages</text>
<text x="1810" y="782" font-size="14" font-family="Arial" font-weight="bold" fill="#222">1</text>
<text x="1670" y="818" font-size="14" font-family="Arial" font-weight="bold" fill="#222">M</text>
<polygon points="2800,772 2855,800 2800,828 2745,800" fill="white" stroke="black" stroke-width="2"/><text x="2800" y="804" text-anchor="middle" font-size="12" font-weight="bold" font-family="Arial">Manages</text>
<text x="2840" y="785" font-size="14" font-family="Arial" font-weight="bold" fill="#222">1</text>
<text x="2760" y="825" font-size="14" font-family="Arial" font-weight="bold" fill="#222">M</text>
<polygon points="2400,772 2455,800 2400,828 2345,800" fill="white" stroke="black" stroke-width="2"/><text x="2400" y="804" text-anchor="middle" font-size="12" font-weight="bold" font-family="Arial">Manages</text>
<text x="2440" y="785" font-size="14" font-family="Arial" font-weight="bold" fill="#222">1</text>
<text x="2440" y="825" font-size="14" font-family="Arial" font-weight="bold" fill="#222">M</text>
<polygon points="900,1000 940,1025 900,1050 860,1025" fill="white" stroke="black" stroke-width="2"/><text x="900" y="1029" text-anchor="middle" font-size="12" font-weight="bold" font-family="Arial">Has</text>
<text x="850" y="1015" font-size="14" font-family="Arial" font-weight="bold" fill="#222">1</text>
<text x="925" y="1045" font-size="14" font-family="Arial" font-weight="bold" fill="#222">1</text>
<polygon points="3500,525 3540,550 3500,575 3460,550" fill="white" stroke="black" stroke-width="2"/><text x="3500" y="554" text-anchor="middle" font-size="12" font-weight="bold" font-family="Arial">Has</text>
<text x="3440" y="540" font-size="14" font-family="Arial" font-weight="bold" fill="#222">1</text>
<text x="3515" y="580" font-size="14" font-family="Arial" font-weight="bold" fill="#222">1</text>
<polygon points="400,1000 445,1025 400,1050 355,1025" fill="white" stroke="black" stroke-width="2"/><text x="400" y="1029" text-anchor="middle" font-size="12" font-weight="bold" font-family="Arial">Sends</text>
<text x="430" y="1015" font-size="14" font-family="Arial" font-weight="bold" fill="#222">1</text>
<text x="430" y="1045" font-size="14" font-family="Arial" font-weight="bold" fill="#222">M</text>
<polygon points="1300,997 1355,1025 1300,1053 1245,1025" fill="white" stroke="black" stroke-width="2"/><text x="1300" y="1029" text-anchor="middle" font-size="12" font-weight="bold" font-family="Arial">Belongs</text>
<text x="1340" y="1010" font-size="14" font-family="Arial" font-weight="bold" fill="#222">1</text>
<text x="1340" y="1045" font-size="14" font-family="Arial" font-weight="bold" fill="#222">M</text>
<polygon points="3200,1022 3255,1050 3200,1078 3145,1050" fill="white" stroke="black" stroke-width="2"/><text x="3200" y="1054" text-anchor="middle" font-size="12" font-weight="bold" font-family="Arial">Belongs</text>
<text x="3120" y="1032" font-size="14" font-family="Arial" font-weight="bold" fill="#222">1</text>
<text x="3230" y="1075" font-size="14" font-family="Arial" font-weight="bold" fill="#222">M</text>
<polygon points="1800,1000 1840,1025 1800,1050 1760,1025" fill="white" stroke="black" stroke-width="2"/><text x="1800" y="1029" text-anchor="middle" font-size="12" font-weight="bold" font-family="Arial">Has</text>
<text x="1750" y="1015" font-size="14" font-family="Arial" font-weight="bold" fill="#222">1</text>
<text x="1825" y="1045" font-size="14" font-family="Arial" font-weight="bold" fill="#222">M</text>
<polygon points="800,1000 840,1025 800,1050 760,1025" fill="white" stroke="black" stroke-width="2"/><text x="800" y="1029" text-anchor="middle" font-size="12" font-weight="bold" font-family="Arial">For</text>
<text x="825" y="1015" font-size="14" font-family="Arial" font-weight="bold" fill="#222">1</text>
<text x="760" y="1045" font-size="14" font-family="Arial" font-weight="bold" fill="#222">M</text>
<polygon points="1600,1700 1640,1725 1600,1750 1560,1725" fill="white" stroke="black" stroke-width="2"/><text x="1600" y="1729" text-anchor="middle" font-size="12" font-weight="bold" font-family="Arial">Has</text>
<text x="1625" y="1715" font-size="14" font-family="Arial" font-weight="bold" fill="#222">1</text>
<text x="1625" y="1745" font-size="14" font-family="Arial" font-weight="bold" fill="#222">M</text>
<polygon points="2100,1700 2140,1725 2100,1750 2060,1725" fill="white" stroke="black" stroke-width="2"/><text x="2100" y="1729" text-anchor="middle" font-size="12" font-weight="bold" font-family="Arial">Has</text>
<text x="2055" y="1715" font-size="14" font-family="Arial" font-weight="bold" fill="#222">1</text>
<text x="2055" y="1745" font-size="14" font-family="Arial" font-weight="bold" fill="#222">M</text>
<polygon points="3250,1700 3290,1725 3250,1750 3210,1725" fill="white" stroke="black" stroke-width="2"/><text x="3250" y="1729" text-anchor="middle" font-size="12" font-weight="bold" font-family="Arial">Has</text>
<text x="3275" y="1715" font-size="14" font-family="Arial" font-weight="bold" fill="#222">1</text>
<text x="3275" y="1745" font-size="14" font-family="Arial" font-weight="bold" fill="#222">M</text>
<polygon points="2700,1700 2740,1725 2700,1750 2660,1725" fill="white" stroke="black" stroke-width="2"/><text x="2700" y="1729" text-anchor="middle" font-size="12" font-weight="bold" font-family="Arial">Has</text>
<text x="2655" y="1715" font-size="14" font-family="Arial" font-weight="bold" fill="#222">1</text>
<text x="2655" y="1745" font-size="14" font-family="Arial" font-weight="bold" fill="#222">M</text>
<polygon points="1150,1700 1195,1725 1150,1750 1105,1725" fill="white" stroke="black" stroke-width="2"/><text x="1150" y="1729" text-anchor="middle" font-size="12" font-weight="bold" font-family="Arial">Scored</text>
<text x="1180" y="1715" font-size="14" font-family="Arial" font-weight="bold" fill="#222">1</text>
<text x="1100" y="1745" font-size="14" font-family="Arial" font-weight="bold" fill="#222">M</text>
<polygon points="900,1700 940,1725 900,1750 860,1725" fill="white" stroke="black" stroke-width="2"/><text x="900" y="1729" text-anchor="middle" font-size="12" font-weight="bold" font-family="Arial">For</text>
<text x="925" y="1715" font-size="14" font-family="Arial" font-weight="bold" fill="#222">1</text>
<text x="925" y="1745" font-size="14" font-family="Arial" font-weight="bold" fill="#222">M</text>
<polygon points="1350,2447 1400,2475 1350,2503 1300,2475" fill="white" stroke="black" stroke-width="2"/><text x="1350" y="2479" text-anchor="middle" font-size="12" font-weight="bold" font-family="Arial">Marked</text>
<text x="1290" y="2465" font-size="14" font-family="Arial" font-weight="bold" fill="#222">1</text>
<text x="1290" y="2500" font-size="14" font-family="Arial" font-weight="bold" fill="#222">M</text>
<polygon points="1700,2450 1740,2475 1700,2500 1660,2475" fill="white" stroke="black" stroke-width="2"/><text x="1700" y="2479" text-anchor="middle" font-size="12" font-weight="bold" font-family="Arial">For</text>
<text x="1725" y="2465" font-size="14" font-family="Arial" font-weight="bold" fill="#222">1</text>
<text x="1725" y="2495" font-size="14" font-family="Arial" font-weight="bold" fill="#222">M</text>
<polygon points="2000,2672 2055,2700 2000,2728 1945,2700" fill="white" stroke="black" stroke-width="2"/><text x="2000" y="2704" text-anchor="middle" font-size="12" font-weight="bold" font-family="Arial">Records</text>
<text x="2060" y="2682" font-size="14" font-family="Arial" font-weight="bold" fill="#222">1</text>
<text x="1920" y="2682" font-size="14" font-family="Arial" font-weight="bold" fill="#222">M</text>
<polygon points="1500,3122 1550,3150 1500,3178 1450,3150" fill="white" stroke="black" stroke-width="2"/><text x="1500" y="3154" text-anchor="middle" font-size="12" font-weight="bold" font-family="Arial">During</text>
<text x="1555" y="3140" font-size="14" font-family="Arial" font-weight="bold" fill="#222">1</text>
<text x="1515" y="3105" font-size="14" font-family="Arial" font-weight="bold" fill="#222">M</text>
<polygon points="2800,2450 2840,2475 2800,2500 2760,2475" fill="white" stroke="black" stroke-width="2"/><text x="2800" y="2479" text-anchor="middle" font-size="12" font-weight="bold" font-family="Arial">Has</text>
<text x="2825" y="2465" font-size="14" font-family="Arial" font-weight="bold" fill="#222">1</text>
<text x="2825" y="2495" font-size="14" font-family="Arial" font-weight="bold" fill="#222">M</text>
<polygon points="2500,2447 2555,2475 2500,2503 2445,2475" fill="white" stroke="black" stroke-width="2"/><text x="2500" y="2479" text-anchor="middle" font-size="12" font-weight="bold" font-family="Arial">Scheduled</text>
<text x="2540" y="2460" font-size="14" font-family="Arial" font-weight="bold" fill="#222">1</text>
<text x="2430" y="2500" font-size="14" font-family="Arial" font-weight="bold" fill="#222">M</text>
<polygon points="3100,2447 3155,2475 3100,2503 3045,2475" fill="white" stroke="black" stroke-width="2"/><text x="3100" y="2479" text-anchor="middle" font-size="12" font-weight="bold" font-family="Arial">Assigned</text>
<text x="3140" y="2460" font-size="14" font-family="Arial" font-weight="bold" fill="#222">1</text>
<text x="3045" y="2500" font-size="14" font-family="Arial" font-weight="bold" fill="#222">M</text>
<polygon points="2800,3125 2840,3150 2800,3175 2760,3150" fill="white" stroke="black" stroke-width="2"/><text x="2800" y="3154" text-anchor="middle" font-size="12" font-weight="bold" font-family="Arial">At</text>
<text x="2825" y="3140" font-size="14" font-family="Arial" font-weight="bold" fill="#222">1</text>
<text x="2815" y="3110" font-size="14" font-family="Arial" font-weight="bold" fill="#222">M</text>
<polygon points="350,2625 395,2650 350,2675 305,2650" fill="white" stroke="black" stroke-width="2"/><text x="350" y="2654" text-anchor="middle" font-size="12" font-weight="bold" font-family="Arial">Views</text>
<text x="380" y="2640" font-size="14" font-family="Arial" font-weight="bold" fill="#222">1</text>
<text x="400" y="2670" font-size="14" font-family="Arial" font-weight="bold" fill="#222">M</text></svg>